<svg width="46" height="23" viewBox="0 0 46 23" fill="none" xmlns="http://www.w3.org/2000/svg">
<path d="M11.8506 11.8517H3.05176e-05V0H11.8506V11.8509V11.8517ZM0.748665 11.1022H11.1011V0.749461H0.748665V11.1022Z" fill="#151F27"/>
<path d="M6.46268 8.42022V3.43162H9.47983V2.36719H2.36176V3.43162H5.39828V8.42022H2.37145V9.48465H9.48952V8.42022H6.46268Z" fill="#151F27"/>
<path d="M22.9526 11.8517H11.1021V6.10352e-05H22.9526V11.8509V11.8517ZM11.8507 11.1023H22.2032V0.749522H11.8507V11.1023Z" fill="#151F27"/>
<path d="M17.0324 2.36719H13.4685V9.48546H17.0372C18.9981 9.4798 20.5858 7.88881 20.5858 5.92632C20.5858 3.96383 18.9948 2.37042 17.0316 2.36719H17.0324ZM17.0275 8.42022H14.5337V3.43162H17.0275C18.4053 3.43162 19.4463 4.54854 19.4463 5.92551C19.4463 7.30249 18.4053 8.41941 17.0275 8.41941V8.42022Z" fill="#151F27"/>
<path d="M34.0539 11.8517H22.2034V6.10352e-05H34.0539V11.8509V11.8517ZM22.9528 11.1023H33.3053V0.749522H22.9528V11.1023Z" fill="#151F27"/>
<path d="M31.6875 3.43162V2.36719H24.571H24.5694V9.48465H31.6875V8.42022H25.6354V6.45854H30.3978V5.39411H25.6354V3.43162H31.6875Z" fill="#151F27"/>
<path d="M45.1556 22.9532H33.3051V11.1023H45.1556V22.9532ZM34.0537 22.2045H44.4061V11.8518H34.0537V22.2045Z" fill="#151F27"/>
<path d="M39.23 20.9899C37.0172 20.9899 35.2171 19.2188 35.2171 17.0278C35.2171 14.8367 37.0172 13.0656 39.23 13.0656C41.4428 13.0656 43.2421 14.8367 43.2421 17.0278C43.2421 19.2188 41.442 20.9899 39.23 20.9899ZM39.23 14.252C37.6794 14.252 36.4212 15.4901 36.4212 17.0278C36.4212 18.5655 37.6802 19.8035 39.23 19.8035C40.7798 19.8035 42.0388 18.5655 42.0388 17.0278C42.0388 15.4901 40.7798 14.252 39.23 14.252Z" fill="#151F27"/>
</svg>
